<?xml version="1.0" encoding="utf-8" ?><svg xmlns="http://www.w3.org/2000/svg" xmlns:xlink="http://www.w3.org/1999/xlink" width="1024" height="1024" viewBox="0 0 1024 1024"><path fill="#0B0B0A" d="M706.804 148.188C708.985 148.005 712.015 147.991 714.244 147.977L756.527 147.981C763.563 147.957 770.603 147.891 777.638 147.947C830.965 148.365 876.159 192.539 876.494 246.081L876.505 287.335C876.502 307.423 877.3 327.706 870.658 347.01C864.146 365.933 853.002 385.053 838.855 399.269C818.229 419.61 791.308 432.346 762.5 435.389C752.641 436.387 739.68 436.037 729.615 436.029L686.254 435.972C685.708 428.181 685.983 417.311 685.98 409.345L685.987 364.038C701.13 363.182 718.371 364.029 733.69 363.847C755.79 363.584 771.465 363.945 788.344 346.9C795.29 339.911 800.204 331.165 802.562 321.597C805.417 310.344 804.507 289.149 804.501 276.757L804.504 221.066C798.457 220.513 789.162 220.682 782.887 220.665L748.086 220.616C729.268 220.584 709.27 218.358 691.92 226.79C655.285 244.596 661.605 283.896 661.802 318.332L662.019 374.688L661.945 517.354C661.916 524.332 662.636 559.895 661.141 564.311C657.962 564.871 642.676 564.719 638.403 564.746L590.233 565.016C589.83 558.481 590.026 550.03 590.022 543.328L590.014 505.591L590.017 390.569L590.011 307.894C590.002 296.687 589.868 285.45 590.012 274.246C590.842 209.467 642.231 153.324 706.804 148.188Z"/><path fill="#0B0B0A" d="M407.951 460.746C416.605 460.694 425.914 460.469 434.506 460.887L434.07 660.914L434.044 723.904C434.035 735.419 434.393 750.244 433.562 761.472C431.004 794.379 415.437 824.91 390.305 846.307C382.499 853.015 375.423 857.302 366.706 862.104C337.3 878.302 310.668 877.469 278.466 876.835C266.004 876.589 250.099 877.508 237.922 876.606C213.263 874.78 187.542 860.647 171.812 841.66C146.125 810.656 147.997 782.614 148.472 745.322C148.644 731.8 147.753 715.984 149.11 702.694C152.783 666.732 169.051 639.555 196.502 616.875C229.002 592.39 258.483 587.757 297.801 589.429C311.517 590.012 326.011 589.015 339.923 589.689C340.547 611.751 340.279 638.836 339.874 660.996C320.523 660.964 301.179 660.965 281.78 660.981C263.427 660.572 249.224 664.937 236.234 678.027C217.964 696.439 221.117 718.228 221.089 742.197L221.483 803.965L276.311 804.082C301.897 804.124 325.393 807.658 345.501 788.802C366.119 769.468 363.951 747.169 363.777 721.506L363.518 675.211L363.856 540.858C363.844 515.488 363.04 486.187 363.799 461.103C377.101 460.399 394.399 460.803 407.951 460.746Z"/><path fill="#0B0B0A" d="M869.616 400.435C871.522 399.445 871.919 399.037 873.34 397.338C874.102 396.426 874.166 395.546 874.885 394.79C875.116 394.589 875.238 395.798 875.147 395.808C875.099 396.044 875.051 396.28 875.003 396.515C874.73 397.946 874.739 398.596 874.817 400.004C874.926 401.956 874.356 402.573 875.245 404.315C875.947 405.689 875.973 407.934 876.395 409.785C876.452 412.438 876.487 415.091 876.501 417.744L876.527 494.42C876.566 546.474 880.57 582.498 840.038 623.141C822.266 640.739 799.823 652.876 775.367 658.115C759.763 661.498 739.864 660.949 723.67 660.938L669.698 660.894L459.066 660.968C458.981 656.819 459.044 652.384 459.173 648.237C459.779 628.625 458.967 608.8 459.578 589.228C466.307 588.608 478.323 588.942 485.484 588.944L531.998 588.916L688.157 588.93L729.641 589.038C739.022 589.048 749.811 589.459 758.94 587.813C778.572 584.275 797.748 567.364 802.365 547.746C805.682 533.653 804.56 516.29 804.563 501.671C804.479 484.388 804.663 467.104 805.115 449.827C810.218 447.084 816.61 444.855 821.967 441.874C834.129 435.106 846.181 426.151 856.03 416.339C860.413 411.973 864.958 405.256 869.173 400.888L869.616 400.435Z"/><path fill="#0B0B0A" d="M442.445 364.747L520.946 364.537C534.291 364.521 553.094 363.985 566.049 364.913C566.402 388.385 566.064 412.781 565.983 436.322C559.565 436.654 549.608 436.23 542.857 436.193L496.753 436.045L346.029 436.061L297.873 435.99C290.844 435.987 278.376 435.642 271.72 436.409C263.091 437.379 254.773 440.197 247.333 444.673C241.134 448.449 235.731 453.398 231.427 459.243C218.753 476.51 220.811 492.931 220.857 513.361C220.94 527.087 220.942 540.814 220.863 554.54C220.839 559.684 221.545 570.151 220.432 574.618C219.443 575.953 217.884 576.333 216.277 576.99C187.661 589.481 166.265 607.4 148.775 633.231C148.343 629.878 148.45 624.848 148.429 621.377L148.457 538.792C148.432 514.474 146.538 481.971 152.326 459.239C157.773 437.836 168.928 418.313 184.6 402.752C200.171 387.131 221.153 374.707 242.559 368.911C259.516 364.319 276.208 364.808 293.565 364.82L327.965 364.785C366.125 364.993 404.285 364.98 442.445 364.747Z"/><path fill="#0B0B0A" d="M237.832 148.176C248.307 147.657 260.93 147.993 271.53 148.04C285.288 148.101 299.94 147.633 313.543 148.059C346.139 149.08 378.149 163.088 400.353 186.795C431.202 219.731 435.452 253.512 434.607 296.208C434.319 310.701 434.916 326.132 434.416 340.896C410.802 340.59 387.186 340.544 363.571 340.757C362.65 317.443 364.741 292.764 363.124 269.615C361.809 250.765 347.271 232.784 330.27 225.464C319.17 220.685 308.649 220.708 296.545 220.702L272.207 220.75C255.575 220.842 237.879 220.469 221.356 220.967C220.911 225.233 221.08 233.083 221.047 237.514L220.974 270.677L221.02 302.447C221.065 321.543 220.304 330.214 229.08 347.738C201.956 356.863 179.273 371.412 160.568 393.186C156.527 397.889 152.469 404.797 148.51 408.789L148.46 295.629L148.416 261.426C148.404 249.255 147.916 239.046 150.321 226.986C153.395 212.074 159.956 198.102 169.466 186.212C186.753 164.801 210.431 151.208 237.832 148.176Z"/><path fill="#0B0B0A" d="M876.212 618.355C877.268 622.507 876.518 645.812 876.518 651.383L876.514 710.268L876.518 753.561C876.519 769.665 877.451 787.177 873.396 802.636C862.521 844.725 822.053 877.581 778.107 876.837C753.899 876.427 727.666 878.151 703.592 876.35C677.644 874.408 649.19 861.213 630.385 843.225C604.732 818.687 590.815 786.708 590.308 751.125C590.048 731.533 589.613 705.428 590.446 685.925C594.09 685.735 597.851 685.716 601.505 685.723C621.491 685.756 641.597 685.224 661.576 685.537C662.152 691.858 661.641 705.603 661.623 712.666C661.613 721.564 661.675 730.461 661.808 739.358C662.08 760.591 663.088 773.182 678.748 789.182C697.067 807.899 721.03 804.745 744.827 804.731L803.966 804.49C804.517 800.069 804.367 792.026 804.385 787.37L804.458 757.956L804.495 723.313C804.498 702.433 805.09 696.912 796.93 677.489C829.918 665.202 855.769 647.551 876.212 618.355Z"/><path fill="#0B0B0A" d="M392.088 147.969L580.026 148.004C585.902 148.007 632.375 147.564 634.344 148.36C633.333 149.67 620.146 159.717 617.34 162.191C608.918 169.615 605.004 174.298 598.037 182.862C589.367 194.473 582.17 207.114 576.609 220.495C570.233 220.855 561.439 220.598 554.92 220.595L515.523 220.573L474.809 220.586C466.45 220.604 457.213 220.84 448.933 220.414C433.585 187.086 423.35 169.538 392.088 147.969Z"/><path fill="#0B0B0A" d="M558.368 804.755C564.186 804.693 571.009 804.505 576.714 805.033C579.157 809.901 580.917 815.119 583.524 820.249C591.906 836.592 603.377 851.155 617.302 863.132C622.871 867.983 629.605 872.483 634.383 876.698L634.69 876.974L465.875 876.978L391.129 876.745C410.548 861.679 425.828 846.775 438.591 825.367C442.179 819.349 445.612 811.552 448.627 805.12C460.381 804.308 477.374 804.783 489.466 804.811C512.433 804.914 535.401 804.895 558.368 804.755Z"/><path fill="#0B0B0A" fill-opacity="0.96862745" d="M876.46 390.914C876.536 397.204 876.514 403.495 876.395 409.785C875.973 407.934 875.947 405.689 875.245 404.315C874.356 402.573 874.926 401.956 874.817 400.004C874.739 398.596 874.73 397.946 875.003 396.515C875.051 396.28 875.099 396.044 875.147 395.808C875.238 395.798 875.116 394.589 874.885 394.79C874.166 395.546 874.102 396.426 873.34 397.338C871.919 399.037 871.522 399.445 869.616 400.435C871.335 397.556 874.376 393.613 876.46 390.914Z"/></svg>